<svg width="252" height="191" viewBox="0 0 252 191" fill="none" xmlns="http://www.w3.org/2000/svg">
<rect width="252" height="191" fill="black"/>
<g filter="url(#filter0_d_110_6)">
<path d="M78.09 62.8713V112.221H64.37V92.4113H47.64V112.221H33.92V62.8713H47.64V81.4213H64.37V62.8713H78.09ZM99.6615 73.8613V81.9113H115.411V92.3413H99.6615V101.231H117.511V112.221H85.9415V62.8713H117.511V73.8613H99.6615ZM149.281 112.221L139.481 94.0213H138.011V112.221H124.291V62.8713H145.921C149.888 62.8713 153.248 63.5713 156.001 64.9713C158.754 66.3246 160.831 68.2146 162.231 70.6413C163.631 73.0213 164.331 75.7046 164.331 78.6913C164.331 82.0513 163.398 85.0146 161.531 87.5813C159.711 90.1013 157.028 91.898 153.481 92.9713L164.611 112.221H149.281ZM138.011 84.6413H144.801C146.668 84.6413 148.068 84.198 149.001 83.3113C149.934 82.4246 150.401 81.1413 150.401 79.4613C150.401 77.8746 149.911 76.638 148.931 75.7513C147.998 74.818 146.621 74.3513 144.801 74.3513H138.011V84.6413ZM194.23 112.711C189.61 112.711 185.364 111.638 181.49 109.491C177.617 107.298 174.537 104.288 172.25 100.461C170.01 96.588 168.89 92.2246 168.89 87.3713C168.89 82.518 170.01 78.178 172.25 74.3513C174.537 70.478 177.617 67.468 181.49 65.3213C185.364 63.1746 189.61 62.1013 194.23 62.1013C198.897 62.1013 203.144 63.1746 206.97 65.3213C210.844 67.468 213.9 70.478 216.14 74.3513C218.38 78.178 219.5 82.518 219.5 87.3713C219.5 92.2246 218.38 96.588 216.14 100.461C213.9 104.288 210.844 107.298 206.97 109.491C203.097 111.638 198.85 112.711 194.23 112.711ZM194.23 99.9713C197.73 99.9713 200.484 98.828 202.49 96.5413C204.544 94.2546 205.57 91.198 205.57 87.3713C205.57 83.4513 204.544 80.3713 202.49 78.1313C200.484 75.8446 197.73 74.7013 194.23 74.7013C190.684 74.7013 187.907 75.8446 185.9 78.1313C183.894 80.3713 182.89 83.4513 182.89 87.3713C182.89 91.2446 183.894 94.3246 185.9 96.6113C187.907 98.8513 190.684 99.9713 194.23 99.9713Z" fill="white"/>
<path d="M78.09 62.8713H79.09V61.8713H78.09V62.8713ZM78.09 112.221V113.221H79.09V112.221H78.09ZM64.37 112.221H63.37V113.221H64.37V112.221ZM64.37 92.4113H65.37V91.4113H64.37V92.4113ZM47.64 92.4113V91.4113H46.64V92.4113H47.64ZM47.64 112.221V113.221H48.64V112.221H47.64ZM33.92 112.221H32.92V113.221H33.92V112.221ZM33.92 62.8713V61.8713H32.92V62.8713H33.92ZM47.64 62.8713H48.64V61.8713H47.64V62.8713ZM47.64 81.4213H46.64V82.4213H47.64V81.4213ZM64.37 81.4213V82.4213H65.37V81.4213H64.37ZM64.37 62.8713V61.8713H63.37V62.8713H64.37ZM77.09 62.8713V112.221H79.09V62.8713H77.09ZM78.09 111.221H64.37V113.221H78.09V111.221ZM65.37 112.221V92.4113H63.37V112.221H65.37ZM64.37 91.4113H47.64V93.4113H64.37V91.4113ZM46.64 92.4113V112.221H48.64V92.4113H46.64ZM47.64 111.221H33.92V113.221H47.64V111.221ZM34.92 112.221V62.8713H32.92V112.221H34.92ZM33.92 63.8713H47.64V61.8713H33.92V63.8713ZM46.64 62.8713V81.4213H48.64V62.8713H46.64ZM47.64 82.4213H64.37V80.4213H47.64V82.4213ZM65.37 81.4213V62.8713H63.37V81.4213H65.37ZM64.37 63.8713H78.09V61.8713H64.37V63.8713ZM99.6615 73.8613V72.8613H98.6615V73.8613H99.6615ZM99.6615 81.9113H98.6615V82.9113H99.6615V81.9113ZM115.411 81.9113H116.411V80.9113H115.411V81.9113ZM115.411 92.3413V93.3413H116.411V92.3413H115.411ZM99.6615 92.3413V91.3413H98.6615V92.3413H99.6615ZM99.6615 101.231H98.6615V102.231H99.6615V101.231ZM117.511 101.231H118.511V100.231H117.511V101.231ZM117.511 112.221V113.221H118.511V112.221H117.511ZM85.9415 112.221H84.9415V113.221H85.9415V112.221ZM85.9415 62.8713V61.8713H84.9415V62.8713H85.9415ZM117.511 62.8713H118.511V61.8713H117.511V62.8713ZM117.511 73.8613V74.8613H118.511V73.8613H117.511ZM98.6615 73.8613V81.9113H100.661V73.8613H98.6615ZM99.6615 82.9113H115.411V80.9113H99.6615V82.9113ZM114.411 81.9113V92.3413H116.411V81.9113H114.411ZM115.411 91.3413H99.6615V93.3413H115.411V91.3413ZM98.6615 92.3413V101.231H100.661V92.3413H98.6615ZM99.6615 102.231H117.511V100.231H99.6615V102.231ZM116.511 101.231V112.221H118.511V101.231H116.511ZM117.511 111.221H85.9415V113.221H117.511V111.221ZM86.9415 112.221V62.8713H84.9415V112.221H86.9415ZM85.9415 63.8713H117.511V61.8713H85.9415V63.8713ZM116.511 62.8713V73.8613H118.511V62.8713H116.511ZM117.511 72.8613H99.6615V74.8613H117.511V72.8613ZM149.281 112.221L148.401 112.695L148.684 113.221H149.281V112.221ZM139.481 94.0213L140.362 93.5472L140.078 93.0213H139.481V94.0213ZM138.011 94.0213V93.0213H137.011V94.0213H138.011ZM138.011 112.221V113.221H139.011V112.221H138.011ZM124.291 112.221H123.291V113.221H124.291V112.221ZM124.291 62.8713V61.8713H123.291V62.8713H124.291ZM156.001 64.9713L155.548 65.8628L155.56 65.8688L156.001 64.9713ZM162.231 70.6413L161.365 71.1411L161.369 71.1483L162.231 70.6413ZM161.531 87.5813L160.722 86.9931L160.72 86.9958L161.531 87.5813ZM153.481 92.9713L153.191 92.0142L151.984 92.3796L152.615 93.4719L153.481 92.9713ZM164.611 112.221V113.221H166.344L165.477 111.721L164.611 112.221ZM138.011 84.6413H137.011V85.6413H138.011V84.6413ZM149.001 83.3113L148.312 82.5863L148.312 82.5863L149.001 83.3113ZM148.931 75.7513L148.224 76.4584L148.242 76.4761L148.26 76.4928L148.931 75.7513ZM138.011 74.3513V73.3513H137.011V74.3513H138.011ZM150.162 111.747L140.362 93.5472L138.601 94.4954L148.401 112.695L150.162 111.747ZM139.481 93.0213H138.011V95.0213H139.481V93.0213ZM137.011 94.0213V112.221H139.011V94.0213H137.011ZM138.011 111.221H124.291V113.221H138.011V111.221ZM125.291 112.221V62.8713H123.291V112.221H125.291ZM124.291 63.8713H145.921V61.8713H124.291V63.8713ZM145.921 63.8713C149.774 63.8713 152.969 64.5515 155.548 65.8627L156.454 64.0799C153.526 62.5912 150.002 61.8713 145.921 61.8713V63.8713ZM155.56 65.8688C158.153 67.1433 160.073 68.9025 161.365 71.141L163.097 70.1416C161.589 67.5268 159.356 65.506 156.442 64.0739L155.56 65.8688ZM161.369 71.1483C162.671 73.3622 163.331 75.8679 163.331 78.6913H165.331C165.331 75.5414 164.591 72.6804 163.093 70.1343L161.369 71.1483ZM163.331 78.6913C163.331 81.8532 162.457 84.6078 160.722 86.9931L162.34 88.1695C164.338 85.4215 165.331 82.2495 165.331 78.6913H163.331ZM160.72 86.9958C159.052 89.3059 156.57 90.9917 153.191 92.0142L153.771 93.9284C157.486 92.8042 160.37 90.8967 162.342 88.1668L160.72 86.9958ZM152.615 93.4719L163.745 112.722L165.477 111.721L154.347 92.4708L152.615 93.4719ZM164.611 111.221H149.281V113.221H164.611V111.221ZM138.011 85.6413H144.801V83.6413H138.011V85.6413ZM144.801 85.6413C146.809 85.6413 148.502 85.1652 149.69 84.0363L148.312 82.5863C147.634 83.2307 146.526 83.6413 144.801 83.6413V85.6413ZM149.69 84.0363C150.878 82.9079 151.401 81.3277 151.401 79.4613H149.401C149.401 80.9549 148.991 81.9414 148.312 82.5863L149.69 84.0363ZM151.401 79.4613C151.401 77.6537 150.833 76.1238 149.602 75.0098L148.26 76.4928C148.989 77.1522 149.401 78.0956 149.401 79.4613H151.401ZM149.638 75.0442C148.456 73.8615 146.784 73.3513 144.801 73.3513V75.3513C146.458 75.3513 147.54 75.7745 148.224 76.4584L149.638 75.0442ZM144.801 73.3513H138.011V75.3513H144.801V73.3513ZM137.011 74.3513V84.6413H139.011V74.3513H137.011ZM181.49 109.491L180.998 110.362L181.006 110.366L181.49 109.491ZM172.25 100.461L171.385 100.962L171.388 100.968L171.392 100.974L172.25 100.461ZM172.25 74.3513L171.389 73.8429L171.387 73.8461L172.25 74.3513ZM206.97 65.3213L206.481 66.1935L206.486 66.196L206.97 65.3213ZM216.14 74.3513L215.275 74.8519L215.277 74.8565L216.14 74.3513ZM216.14 100.461L217.003 100.966L217.006 100.962L216.14 100.461ZM206.97 109.491L207.455 110.366L207.463 110.361L206.97 109.491ZM202.49 96.5413L201.746 95.8731L201.739 95.8817L202.49 96.5413ZM202.49 78.1313L201.739 78.7909L201.746 78.799L201.753 78.807L202.49 78.1313ZM185.9 78.1313L186.645 78.7986L186.652 78.7909L185.9 78.1313ZM185.9 96.6113L185.149 97.2709L185.156 97.2786L185.9 96.6113ZM194.23 111.711C189.772 111.711 185.694 110.677 181.975 108.617L181.006 110.366C185.034 112.598 189.448 113.711 194.23 113.711V111.711ZM181.983 108.621C178.261 106.513 175.307 103.627 173.109 99.9484L171.392 100.974C173.767 104.949 176.973 108.083 180.998 110.361L181.983 108.621ZM173.116 99.9607C170.971 96.2523 169.89 92.0642 169.89 87.3713H167.89C167.89 92.3851 169.049 96.9237 171.385 100.962L173.116 99.9607ZM169.89 87.3713C169.89 82.6783 170.971 78.5157 173.113 74.8565L171.387 73.8461C169.049 77.8403 167.89 82.3577 167.89 87.3713H169.89ZM173.112 74.8597C175.309 71.1373 178.26 68.2548 181.975 66.196L181.006 64.4467C176.974 66.6811 173.765 69.8187 171.389 73.8429L173.112 74.8597ZM181.975 66.196C185.694 64.1351 189.772 63.1013 194.23 63.1013V61.1013C189.448 61.1013 185.034 62.2142 181.006 64.4467L181.975 66.196ZM194.23 63.1013C198.737 63.1013 202.813 64.136 206.481 66.1935L207.46 64.4492C203.474 62.2133 199.057 61.1013 194.23 61.1013V63.1013ZM206.486 66.196C210.199 68.2538 213.124 71.1338 215.275 74.8519L217.006 73.8507C214.676 69.8222 211.489 66.6821 207.455 64.4467L206.486 66.196ZM215.277 74.8565C217.419 78.5157 218.5 82.6783 218.5 87.3713H220.5C220.5 82.3577 219.341 77.8403 217.003 73.8461L215.277 74.8565ZM218.5 87.3713C218.5 92.0642 217.419 96.2523 215.275 99.9607L217.006 100.962C219.341 96.9237 220.5 92.3851 220.5 87.3713H218.5ZM215.277 99.9561C213.127 103.63 210.198 106.514 206.478 108.621L207.463 110.361C211.489 108.082 214.674 104.946 217.003 100.966L215.277 99.9561ZM206.486 108.617C202.767 110.677 198.688 111.711 194.23 111.711V113.711C199.012 113.711 203.427 112.598 207.455 110.366L206.486 108.617ZM194.23 100.971C197.97 100.971 201.016 99.7376 203.242 97.2009L201.739 95.8817C199.951 97.9184 197.491 98.9713 194.23 98.9713V100.971ZM203.234 97.2094C205.49 94.6973 206.57 91.3817 206.57 87.3713H204.57C204.57 91.0143 203.597 93.812 201.746 95.8732L203.234 97.2094ZM206.57 87.3713C206.57 83.276 205.494 79.9286 203.228 77.4556L201.753 78.807C203.593 80.814 204.57 83.6267 204.57 87.3713H206.57ZM203.242 77.4717C201.016 74.9351 197.97 73.7013 194.23 73.7013V75.7013C197.491 75.7013 199.951 76.7542 201.739 78.7909L203.242 77.4717ZM194.23 73.7013C190.449 73.7013 187.377 74.932 185.149 77.4717L186.652 78.7909C188.437 76.7573 190.919 75.7013 194.23 75.7013V73.7013ZM185.156 77.4641C182.94 79.9375 181.89 83.2816 181.89 87.3713H183.89C183.89 83.621 184.848 80.8052 186.645 78.7986L185.156 77.4641ZM181.89 87.3713C181.89 91.4191 182.942 94.7563 185.149 97.2709L186.652 95.9517C184.845 93.893 183.89 91.0702 183.89 87.3713H181.89ZM185.156 97.2786C187.386 99.7686 190.455 100.971 194.23 100.971V98.9713C190.912 98.9713 188.428 97.934 186.645 95.9441L185.156 97.2786Z" fill="#E5E5E5"/>
</g>
<defs>
<filter id="filter0_d_110_6" x="29.92" y="62.1013" width="193.58" height="58.61" filterUnits="userSpaceOnUse" color-interpolation-filters="sRGB">
<feFlood flood-opacity="0" result="BackgroundImageFix"/>
<feColorMatrix in="SourceAlpha" type="matrix" values="0 0 0 0 0 0 0 0 0 0 0 0 0 0 0 0 0 0 127 0" result="hardAlpha"/>
<feOffset dy="4"/>
<feGaussianBlur stdDeviation="2"/>
<feComposite in2="hardAlpha" operator="out"/>
<feColorMatrix type="matrix" values="0 0 0 0 0 0 0 0 0 0 0 0 0 0 0 0 0 0 0.25 0"/>
<feBlend mode="normal" in2="BackgroundImageFix" result="effect1_dropShadow_110_6"/>
<feBlend mode="normal" in="SourceGraphic" in2="effect1_dropShadow_110_6" result="shape"/>
</filter>
</defs>
</svg>
