<svg width="156" height="148" viewBox="0 0 156 148" fill="none" xmlns="http://www.w3.org/2000/svg">
<g filter="url(#filter0_i_19_2)">
<path d="M51.9 39.8V53.5H23.3V68.3H44.7V81.6H23.3V110H6.2V39.8H51.9Z" fill="black"/>
</g>
<path d="M51.9 39.8H52.9V38.8H51.9V39.8ZM51.9 53.5V54.5H52.9V53.5H51.9ZM23.3 53.5V52.5H22.3V53.5H23.3ZM23.3 68.3H22.3V69.3H23.3V68.3ZM44.7 68.3H45.7V67.3H44.7V68.3ZM44.7 81.6V82.6H45.7V81.6H44.7ZM23.3 81.6V80.6H22.3V81.6H23.3ZM23.3 110V111H24.3V110H23.3ZM6.2 110H5.2V111H6.2V110ZM6.2 39.8V38.8H5.2V39.8H6.2ZM50.9 39.8V53.5H52.9V39.8H50.9ZM51.9 52.5H23.3V54.5H51.9V52.5ZM22.3 53.5V68.3H24.3V53.5H22.3ZM23.3 69.3H44.7V67.3H23.3V69.3ZM43.7 68.3V81.6H45.7V68.3H43.7ZM44.7 80.6H23.3V82.6H44.7V80.6ZM22.3 81.6V110H24.3V81.6H22.3ZM23.3 109H6.2V111H23.3V109ZM7.2 110V39.8H5.2V110H7.2ZM6.2 40.8H51.9V38.8H6.2V40.8Z" fill="black"/>
<path d="M128.183 74.7981L89.0773 133.097L74.8761 123.572L90.9751 99.571L68.8844 84.7533L52.7855 108.754L38.5844 99.2284L77.6897 40.9291L91.8908 50.4547L76.5718 73.2928L98.6624 88.1105L113.981 65.2724L128.183 74.7981Z" fill="black"/>
<path d="M128.183 74.7981L129.013 75.3551L129.57 74.5247L128.74 73.9676L128.183 74.7981ZM89.0772 133.097L88.5202 133.928L89.3507 134.485L89.9077 133.654L89.0772 133.097ZM74.8761 123.572L74.0457 123.015L73.4886 123.845L74.3191 124.402L74.8761 123.572ZM90.9751 99.571L91.8055 100.128L92.3626 99.2976L91.5321 98.7406L90.9751 99.571ZM68.8844 84.7533L69.4415 83.9229L68.611 83.3658L68.0539 84.1963L68.8844 84.7533ZM52.7855 108.754L52.2284 109.585L53.0589 110.142L53.616 109.311L52.7855 108.754ZM38.5844 99.2284L37.7539 98.6714L37.1968 99.5018L38.0273 100.059L38.5844 99.2284ZM77.6897 40.9291L78.2468 40.0986L77.4163 39.5415L76.8592 40.372L77.6897 40.9291ZM91.8908 50.4547L92.7213 51.0118L93.2784 50.1813L92.4479 49.6243L91.8908 50.4547ZM76.5718 73.2928L75.7413 72.7357L75.1843 73.5662L76.0147 74.1233L76.5718 73.2928ZM98.6624 88.1105L98.1054 88.941L98.9358 89.498L99.4929 88.6675L98.6624 88.1105ZM113.981 65.2724L114.539 64.4419L113.708 63.8849L113.151 64.7154L113.981 65.2724ZM127.352 74.241L88.2468 132.54L89.9077 133.654L129.013 75.3551L127.352 74.241ZM89.6343 132.267L75.4332 122.741L74.3191 124.402L88.5202 133.928L89.6343 132.267ZM75.7066 124.129L91.8055 100.128L90.1446 99.014L74.0457 123.015L75.7066 124.129ZM91.5321 98.7406L69.4415 83.9229L68.3274 85.5838L90.418 100.402L91.5321 98.7406ZM68.0539 84.1963L51.955 108.197L53.616 109.311L69.7149 85.3104L68.0539 84.1963ZM53.3426 107.924L39.1414 98.3979L38.0273 100.059L52.2284 109.585L53.3426 107.924ZM39.4149 99.7855L78.5202 41.4861L76.8592 40.372L37.7539 98.6714L39.4149 99.7855ZM77.1327 41.7595L91.3338 51.2852L92.4479 49.6243L78.2468 40.0986L77.1327 41.7595ZM91.0604 49.8977L75.7413 72.7357L77.4023 73.8498L92.7213 51.0118L91.0604 49.8977ZM76.0147 74.1233L98.1054 88.941L99.2195 87.28L77.1289 72.4623L76.0147 74.1233ZM99.4929 88.6675L114.812 65.8295L113.151 64.7154L97.832 87.5534L99.4929 88.6675ZM113.424 66.1029L127.626 75.6286L128.74 73.9676L114.539 64.4419L113.424 66.1029Z" fill="black"/>
<defs>
<filter id="filter0_i_19_2" x="6.20001" y="39.8" width="45.7" height="74.2" filterUnits="userSpaceOnUse" color-interpolation-filters="sRGB">
<feFlood flood-opacity="0" result="BackgroundImageFix"/>
<feBlend mode="normal" in="SourceGraphic" in2="BackgroundImageFix" result="shape"/>
<feColorMatrix in="SourceAlpha" type="matrix" values="0 0 0 0 0 0 0 0 0 0 0 0 0 0 0 0 0 0 127 0" result="hardAlpha"/>
<feOffset dy="4"/>
<feGaussianBlur stdDeviation="7"/>
<feComposite in2="hardAlpha" operator="arithmetic" k2="-1" k3="1"/>
<feColorMatrix type="matrix" values="0 0 0 0 0 0 0 0 0 0 0 0 0 0 0 0 0 0 0.25 0"/>
<feBlend mode="normal" in2="shape" result="effect1_innerShadow_19_2"/>
</filter>
</defs>
</svg>
