<svg width="245" height="200" viewBox="0 0 245 200" fill="none" xmlns="http://www.w3.org/2000/svg">
<rect y="0.856354" width="245" height="197.222" rx="5" fill="#0025B4"/>
<mask id="mask0_285_25" style="mask-type:alpha" maskUnits="userSpaceOnUse" x="0" y="0" width="245" height="199">
<rect y="0.856354" width="245" height="197.222" rx="5" fill="white"/>
</mask>
<g mask="url(#mask0_285_25)">
<path fill-rule="evenodd" clip-rule="evenodd" d="M131.78 217.281C131.78 217.281 182.447 215.833 216.766 134.19C251.084 52.5463 252.304 -69.4445 252.304 -69.4445L348.4 14.4658C348.4 14.4658 345.344 159.921 334.054 208.016C322.764 256.112 286.368 278.72 286.368 278.72L131.78 217.281Z" fill="#09B1D9"/>
<path fill-rule="evenodd" clip-rule="evenodd" d="M120.531 315.297C120.531 315.297 170.87 298.004 202.149 206.071C233.428 114.137 230.382 -7.5671 230.382 -7.5671L328.881 45.8177C328.881 45.8177 330.922 191.432 321.373 242.797C311.824 294.161 276.417 328.032 276.417 328.032L120.531 315.297Z" fill="#01114C"/>
</g>
</svg>
