<svg width="91" height="90" viewBox="0 0 91 90" fill="none" xmlns="http://www.w3.org/2000/svg">
<path d="M88.2649 79.4568C90.9157 82.1849 90.4877 86.2369 87.3054 88.509C85.9597 89.473 84.2615 90.0008 82.5077 90C80.358 90 78.2257 89.2121 76.7444 87.6857L44.9993 54.8675L13.2649 87.5125C11.7818 89.0381 9.65085 89.8268 7.50163 89.8268C5.74791 89.8274 4.04975 89.2996 2.70397 88.3358C-0.47884 86.0637 -0.907746 82.0117 1.74444 79.2836L35.2366 44.8305L1.73882 10.5507C-0.912668 7.82255 -0.48423 3.77055 2.69929 1.49846C5.87741 -0.779665 10.6048 -0.413236 13.2602 2.32091L44.9993 34.9591L76.7337 2.31408C79.3821 -0.41404 84.1118 -0.783683 87.2946 1.49162C90.4774 3.76372 90.9063 7.81572 88.2541 10.5438L54.7619 44.9969L88.2649 79.4568Z" fill="white"/>
</svg>
