<svg width="105" height="120" viewBox="0 0 105 120" fill="none" xmlns="http://www.w3.org/2000/svg">
<path d="M105 18.75V101.25C105 107.463 99.9633 112.5 93.75 112.5H11.25C5.03672 112.5 0 107.463 0 101.25V18.75C0 12.5367 5.03672 7.5 11.25 7.5H93.75C99.9633 7.5 105 12.5367 105 18.75ZM78.75 30H71.25C69.1788 30 67.5 31.6788 67.5 33.75V52.5H37.5V33.75C37.5 31.6788 35.8212 30 33.75 30H26.25C24.1788 30 22.5 31.6788 22.5 33.75V86.25C22.5 88.3212 24.1788 90 26.25 90H33.75C35.8212 90 37.5 88.3212 37.5 86.25V67.5H67.5V86.25C67.5 88.3212 69.1788 90 71.25 90H78.75C80.8212 90 82.5 88.3212 82.5 86.25V33.75C82.5 31.6788 80.8212 30 78.75 30Z" fill="white"/>
</svg>

